# xmcd
#
# Track frame offsets:
#  225
#  14345
#  42617
#  59788
#  88509
#  103676
#  121915
#  152635
#  187946
#
# Disc length: 2788 seconds
#
# Revision: 0
# Processed by: cddbd v1.4PL0 Copyright (c) Steve Scherf et al.
# Submitted via: AltoMP3_Maker 3.0
#
DISCID=740ae109
DTITLE=Free and Easy - Message from a small world
DYEAR=1900
DGENRE=
TTITLE0=Good love's gone bad
TTITLE1=Your love is in vain
TTITLE2=Pack it up
TTITLE3=On my own
TTITLE4=Angel of mercy
TTITLE5=Straight from the heart
TTITLE6=So long
TTITLE7=She's a little devil, she
TTITLE8=The train of love
EXTD=
EXTT0=
EXTT1=
EXTT2=
EXTT3=
EXTT4=
EXTT5=
EXTT6=
EXTT7=
EXTT8=
PLAYORDER=
